<?xml version="1.0" encoding="UTF-8"?>
<svg id="Layer_1" data-name="Layer 1" xmlns="http://www.w3.org/2000/svg" xmlns:xlink="http://www.w3.org/1999/xlink" viewBox="0 0 1213.04 274.78">
	<defs>
		<style>
			.cls-1 {
			fill: #fff;
			}

			.cls-2 {
			fill: none;
			}

			.cls-3 {
			fill: #3dcd58;
			}

			.cls-4 {
			clip-path: url(#clippath);
			}

			.cls-5 {
			opacity: .05;
			}
		</style>
		<clipPath id="clippath">
			<rect class="cls-2" x="589.05" y="30.73" width="623.99" height="212.63" rx="49.09" ry="49.09"/>
		</clipPath>
	</defs>
	<g>
		<path class="cls-1" d="M114.25,161.73c0,8.7-2.24,16.51-6.72,23.44-4.48,6.93-11.03,12.36-19.66,16.28s-18.86,5.88-30.69,5.88c-14.19,0-25.89-2.68-35.11-8.04-6.54-3.86-11.85-9-15.94-15.44-4.09-6.44-6.13-12.7-6.13-18.78,0-3.53,1.23-6.55,3.68-9.07s5.57-3.78,9.37-3.78c3.07,0,5.67.98,7.8,2.94,2.12,1.96,3.94,4.87,5.44,8.73,1.83,4.58,3.81,8.4,5.93,11.47,2.12,3.07,5.11,5.61,8.97,7.6,3.86,2,8.92,2.99,15.2,2.99,8.63,0,15.64-2.01,21.03-6.03s8.09-9.04,8.09-15.05c0-4.77-1.46-8.64-4.36-11.62-2.91-2.97-6.67-5.25-11.28-6.82s-10.77-3.24-18.48-5c-10.33-2.42-18.98-5.25-25.94-8.48-6.96-3.24-12.49-7.65-16.57-13.24-4.09-5.59-6.13-12.54-6.13-20.84s2.16-14.94,6.47-21.08c4.31-6.14,10.56-10.87,18.73-14.17,8.17-3.3,17.78-4.95,28.83-4.95,8.83,0,16.46,1.1,22.9,3.29,6.44,2.19,11.78,5.1,16.03,8.73s7.35,7.44,9.32,11.42c1.96,3.99,2.94,7.88,2.94,11.67,0,3.47-1.23,6.59-3.68,9.37s-5.51,4.17-9.17,4.17c-3.33,0-5.87-.83-7.6-2.5-1.73-1.67-3.61-4.4-5.64-8.19-2.62-5.43-5.75-9.66-9.41-12.7-3.66-3.04-9.55-4.56-17.65-4.56-7.52,0-13.58,1.65-18.19,4.95-4.61,3.3-6.91,7.27-6.91,11.91,0,2.88.78,5.36,2.35,7.45,1.57,2.09,3.73,3.89,6.47,5.39,2.75,1.5,5.52,2.68,8.33,3.53,2.81.85,7.45,2.09,13.93,3.73,8.11,1.9,15.44,3.99,22.02,6.28,6.57,2.29,12.16,5.07,16.77,8.34s8.2,7.4,10.79,12.4c2.58,5,3.87,11.13,3.87,18.39h0Z"/>
		<path class="cls-1" d="M233.7,83.58h-65.6v35.3h60.41c4.44,0,7.76,1,9.95,2.99,2.19,2,3.29,4.63,3.29,7.89s-1.08,5.93-3.24,7.99c-2.16,2.06-5.49,3.09-10,3.09h-60.41v40.89h67.86c4.58,0,8.02,1.06,10.35,3.19,2.32,2.12,3.48,4.95,3.48,8.48s-1.16,6.16-3.48,8.29c-2.32,2.13-5.77,3.19-10.35,3.19h-79.14c-6.34,0-10.9-1.41-13.68-4.22-2.78-2.81-4.17-7.35-4.17-13.63v-108.07c0-4.18.62-7.6,1.86-10.25s3.19-4.58,5.83-5.79c2.65-1.21,6.03-1.81,10.15-1.81h76.88c4.64,0,8.09,1.03,10.35,3.09,2.26,2.06,3.38,4.76,3.38,8.09s-1.13,6.13-3.38,8.19c-2.26,2.06-5.7,3.09-10.35,3.09h.01Z"/>
		<path class="cls-1" d="M321.46,183.21l-23.04-91.59v99.24c0,5.49-1.23,9.61-3.68,12.36s-5.7,4.12-9.76,4.12-7.13-1.36-9.61-4.07c-2.49-2.71-3.73-6.85-3.73-12.41v-113.75c0-6.28,1.63-10.51,4.9-12.7,3.27-2.19,7.68-3.29,13.24-3.29h9.02c5.43,0,9.36.49,11.82,1.47,2.45.98,4.27,2.75,5.44,5.3,1.18,2.55,2.52,6.7,4.02,12.45l20.89,78.74,20.89-78.74c1.5-5.75,2.84-9.9,4.02-12.45,1.18-2.55,2.99-4.31,5.44-5.3,2.45-.98,6.39-1.47,11.82-1.47h9.02c5.56,0,9.97,1.1,13.24,3.29,3.27,2.19,4.9,6.42,4.9,12.7v113.75c0,5.49-1.23,9.61-3.68,12.36s-5.74,4.12-9.86,4.12c-3.86,0-7.03-1.37-9.51-4.12-2.49-2.75-3.73-6.86-3.73-12.36v-99.24l-23.04,91.59c-1.5,5.95-2.73,10.31-3.68,13.09-.95,2.78-2.7,5.31-5.25,7.6-2.55,2.29-6.08,3.43-10.59,3.43-3.4,0-6.28-.74-8.63-2.21s-4.18-3.35-5.49-5.64-2.34-4.82-3.09-7.6-1.52-5.67-2.3-8.68h.01Z"/>
		<path class="cls-1" d="M501.6,204.88h-43.93c-6.34,0-10.87-1.42-13.58-4.27-2.71-2.84-4.07-7.37-4.07-13.58v-108.07c0-6.34,1.39-10.9,4.17-13.68s7.27-4.17,13.48-4.17h46.58c6.86,0,12.81.43,17.85,1.27,5.03.85,9.54,2.48,13.53,4.9,3.4,2.03,6.41,4.59,9.02,7.7,2.61,3.11,4.61,6.54,5.98,10.3s2.06,7.73,2.06,11.92c0,14.38-7.19,24.91-21.57,31.58,18.89,6.02,28.34,17.72,28.34,35.11,0,8.04-2.06,15.28-6.18,21.72s-9.68,11.2-16.67,14.27c-4.38,1.83-9.41,3.12-15.1,3.87s-12.32,1.13-19.91,1.13h0ZM469.14,82.99v37.17h26.67c7.26,0,12.86-.69,16.82-2.06,3.95-1.37,6.98-3.99,9.07-7.85,1.63-2.75,2.45-5.82,2.45-9.22,0-7.26-2.58-12.08-7.75-14.46-5.17-2.39-13.04-3.58-23.63-3.58h-23.63ZM499.45,141.04h-30.3v41.97h31.28c19.68,0,29.52-7.09,29.52-21.28,0-7.26-2.55-12.52-7.65-15.79-5.1-3.27-12.72-4.9-22.85-4.9h0Z"/>
	</g>
	<g>
		<rect class="cls-3" x="589.05" y="30.73" width="623.99" height="212.63" rx="49.09" ry="49.09"/>
		<g class="cls-4">
			<g class="cls-5">
				<path d="M1191.1,59.79c-71.75-13.18-88.91-53.98-89.63-55.76-1.75-4.46-8.49-5.48-11.49-1.75-.28.35-29.25,35.26-102.25,26.12-3.61-.45-6.92,2.05-7.48,5.64l-12.66,82.03c-7.33,47.48,10.91,96.23,47.59,127.25l35.32,29.87c.96.81,2.11,1.33,3.31,1.51s2.45.04,3.62-.44l42.68-17.83c44.33-18.51,76.42-59.5,83.74-106.98l12.66-82.03c.55-3.59-1.85-6.97-5.43-7.63h.02ZM1170.58,147.4c-6.62,42.88-35.6,79.91-75.64,96.63l-38.89,16.24-32.18-27.21c-33.13-28.02-49.6-72.06-42.99-114.94l11.68-75.67c56.49,5.39,88.06-14.07,100.96-24.95,9.03,14.27,33.26,42.34,88.74,54.23l-11.68,75.67h0Z"/>
				<path d="M1090.09,39.72l-4.51,2.46c-20.9,11.41-45.68,17.22-73.67,17.25h-5.75l-9.44,61.14c-5.77,37.4,8.59,75.81,37.49,100.25l24.7,20.88,29.85-12.46c34.92-14.59,60.2-46.88,65.97-84.28l9.44-61.14-5.48-1.74c-26.68-8.47-48.56-21.48-65.04-38.66l-3.56-3.71h0ZM1141.45,142.91c-.23,1.51-.54,3.01-.85,4.51l-65.55-10.12-13.71,88.83h-.03l-18.42-15.57c-24.17-20.45-36.72-52.05-33.44-83.39l65.6,10.13,12.5-80.95c16.37,15.86,37.04,28.19,61.59,36.72l-7.69,49.84Z"/>
			</g>
		</g>
	</g>
	<g>
		<path class="cls-1" d="M758.84,163.93c0,8.25-2.12,15.67-6.37,22.24-4.25,6.58-10.47,11.73-18.66,15.45s-17.9,5.58-29.13,5.58c-13.46,0-24.57-2.54-33.32-7.63-6.2-3.66-11.24-8.55-15.12-14.66s-5.82-12.05-5.82-17.82c0-3.35,1.16-6.22,3.49-8.61s5.29-3.58,8.89-3.58c2.92,0,5.38.93,7.4,2.79s3.74,4.62,5.16,8.28c1.74,4.34,3.61,7.97,5.63,10.89s4.85,5.32,8.52,7.21,8.47,2.84,14.42,2.84c8.19,0,14.84-1.91,19.96-5.72,5.12-3.82,7.68-8.58,7.68-14.28,0-4.53-1.38-8.2-4.14-11.03-2.76-2.82-6.33-4.98-10.7-6.47s-10.22-3.07-17.54-4.75c-9.8-2.3-18.01-4.98-24.61-8.05-6.61-3.07-11.85-7.26-15.73-12.56s-5.82-11.9-5.82-19.78,2.05-14.18,6.14-20.01,10.02-10.31,17.77-13.45c7.76-3.13,16.88-4.7,27.36-4.7,8.38,0,15.62,1.04,21.73,3.12s11.18,4.84,15.22,8.28c4.03,3.44,6.98,7.06,8.84,10.84s2.79,7.48,2.79,11.07c0,3.29-1.16,6.25-3.49,8.89s-5.23,3.96-8.7,3.96c-3.16,0-5.57-.79-7.21-2.37s-3.43-4.17-5.35-7.77c-2.48-5.15-5.46-9.17-8.93-12.05s-9.06-4.33-16.75-4.33c-7.13,0-12.89,1.57-17.26,4.7s-6.56,6.9-6.56,11.31c0,2.73.74,5.09,2.23,7.07,1.49,1.99,3.54,3.69,6.14,5.12s5.24,2.54,7.91,3.35,7.07,1.99,13.21,3.54c7.69,1.8,14.66,3.78,20.89,5.96s11.54,4.81,15.91,7.91,7.79,7.03,10.24,11.77,3.68,10.56,3.68,17.45h0Z"/>
		<path class="cls-1" d="M872.19,89.76h-62.26v33.5h57.33c4.22,0,7.37.95,9.45,2.84s3.12,4.39,3.12,7.49-1.02,5.63-3.07,7.58-5.21,2.93-9.49,2.93h-57.33v38.81h64.4c4.34,0,7.62,1.01,9.82,3.02s3.3,4.7,3.3,8.05-1.1,5.85-3.3,7.86-5.48,3.02-9.82,3.02h-75.1c-6.02,0-10.35-1.33-12.98-4-2.64-2.67-3.96-6.98-3.96-12.94v-102.55c0-3.97.59-7.21,1.77-9.72s3.02-4.34,5.54-5.49,5.72-1.72,9.63-1.72h72.96c4.4,0,7.68.98,9.82,2.93s3.21,4.51,3.21,7.68-1.07,5.82-3.21,7.77-5.41,2.93-9.82,2.93h-.01Z"/>
		<path class="cls-1" d="M946.55,146.53h-9.68v43.83c0,5.77-1.27,10.02-3.82,12.75s-5.86,4.09-9.96,4.09c-4.4,0-7.82-1.43-10.24-4.28s-3.63-7.04-3.63-12.56v-104.97c0-5.96,1.33-10.27,4-12.94s6.98-4,12.94-4h44.95c6.2,0,11.51.26,15.91.79s8.38,1.6,11.91,3.21c4.28,1.8,8.07,4.37,11.35,7.72s5.79,7.24,7.49,11.68,2.56,9.14,2.56,14.1c0,10.17-2.87,18.3-8.61,24.38s-14.44,10.39-26.1,12.94c4.9,2.61,9.59,6.45,14.05,11.54,4.47,5.09,8.45,10.5,11.96,16.24s6.24,10.92,8.19,15.54,2.93,7.8,2.93,9.54-.57,3.58-1.72,5.35-2.71,3.16-4.7,4.19-4.28,1.54-6.89,1.54c-3.1,0-5.71-.73-7.82-2.19s-3.92-3.3-5.44-5.54c-1.52-2.23-3.58-5.52-6.19-9.86l-11.07-18.43c-3.97-6.76-7.52-11.91-10.66-15.45-3.13-3.54-6.31-5.96-9.54-7.26-3.23-1.3-7.29-1.95-12.19-1.95h.02ZM962.37,89.2h-25.5v37.5h24.75c6.64,0,12.22-.57,16.75-1.72s7.99-3.1,10.38-5.86,3.58-6.56,3.58-11.4c0-3.78-.96-7.12-2.88-10s-4.59-5.04-8-6.47c-3.23-1.36-9.59-2.05-19.08-2.05Z"/>
		<path class="cls-1" d="M1136.4,89.76h-62.26v33.5h57.33c4.22,0,7.37.95,9.45,2.84s3.12,4.39,3.12,7.49-1.02,5.63-3.07,7.58c-2.05,1.95-5.21,2.93-9.49,2.93h-57.33v38.81h64.4c4.34,0,7.62,1.01,9.82,3.02s3.3,4.7,3.3,8.05-1.1,5.85-3.3,7.86-5.48,3.02-9.82,3.02h-75.1c-6.02,0-10.35-1.33-12.98-4-2.64-2.67-3.96-6.98-3.96-12.94v-102.55c0-3.97.59-7.21,1.77-9.72s3.02-4.34,5.54-5.49,5.72-1.72,9.63-1.72h72.96c4.4,0,7.68.98,9.82,2.93s3.21,4.51,3.21,7.68-1.07,5.82-3.21,7.77-5.41,2.93-9.82,2.93h-.01Z"/>
	</g>
</svg>